# xmcd CD database file
#
# Track frame offsets:
#	150
#	20420
#	37385
#	53120
#	69517
#	83100
#	105985
#	123902
#	139192
#	155052
#	168987
#	188595
#	208910
#	220347
#	234635
#	250025
#	271950
#	292295
#
# Disc length: 4176 seconds
#
# Revision: 0
# Processed by: cddbd v1.5.1PL0 Copyright (c) Steve Scherf et al.
# Submitted via: CDex 1.51
#
DISCID=0f104e12
DTITLE=Ska Cubano - Ska Cubano
DYEAR=2003
DGENRE=Ska
TTITLE0=Babalu
TTITLE1=Relax and Manbo
TTITLE2=Bembe for Chango
TTITLE3=Chango
TTITLE4=Ciudad Dormida
TTITLE5=Ska Cubano (San Frnando)
TTITLE6=Loca Rumba
TTITLE7=Malanga Ska
TTITLE8=Pachito El Cha
TTITLE9=Donde Estabasu Tu?
TTITLE10=Yiri Yiri Bon
TTITLE11=Cachita
TTITLE12=Piel Canela
TTITLE13=Con El Chan Chan Chan
TTITLE14=Malanga Ska (instrumental)
TTITLE15=Chango (Dance Mix)
TTITLE16=Yiri Yiri Bon (Dance Mix)
TTITLE17=African Roots (Bobyne Japan)
EXTD=YEAR: 2003
EXTT0=
EXTT1=
EXTT2=
EXTT3=
EXTT4=
EXTT5=
EXTT6=
EXTT7=
EXTT8=
EXTT9=
EXTT10=
EXTT11=
EXTT12=
EXTT13=
EXTT14=
EXTT15=
EXTT16=
EXTT17=
PLAYORDER=
